<?xml version="1.0" encoding="utf-8"?>
<!-- Generator: Adobe Illustrator 21.0.2, SVG Export Plug-In . SVG Version: 6.00 Build 0)  -->
<svg version="1.2" baseProfile="tiny" id="Layer_1" xmlns="http://www.w3.org/2000/svg" xmlns:xlink="http://www.w3.org/1999/xlink"
	 x="0px" y="0px" viewBox="0 0 130.8 130.8" overflow="scroll" xml:space="preserve">
<circle fill="#FFD06C" cx="65.4" cy="65.4" r="65.4"/>
<g>
	<path fill="#FFFF00" d="M51.1,55.8c-2.7,2.7-7.2,2.7-9.9,0c-2.7-2.7-2.7-7.2,0-9.9"/>
	<line fill="none" stroke="#000000" stroke-width="2.11" stroke-miterlimit="10" x1="64.5" y1="25.8" x2="71.3" y2="32.5"/>
	
		<rect x="56.2" y="30.6" transform="matrix(0.7071 0.7071 -0.7071 0.7071 42.926 -33.6322)" fill="#FFFFFF" stroke="#000000" stroke-width="2.11" stroke-miterlimit="10" width="11.7" height="8.7"/>
	<polygon fill="#FFFFFF" stroke="#000000" stroke-width="2.11" stroke-miterlimit="10" points="56.9,61.4 35.2,40.1 54.8,33.9 
		63.1,42.2 	"/>
	<polygon fill="#FFFFFF" stroke="#000000" stroke-width="2.11" stroke-miterlimit="10" points="80.6,94.7 70.6,94.7 58.7,97.4 
		58.7,101.1 92.6,101.1 92.6,97.4 	"/>
	<rect x="70.6" y="90.3" fill="#FFFFFF" stroke="#000000" stroke-width="2.11" stroke-miterlimit="10" width="10" height="4.4"/>
	<circle fill="#FFFFFF" stroke="#000000" stroke-width="2.11" stroke-miterlimit="10" cx="75.6" cy="84" r="4.3"/>
	<circle fill="#FFFFFF" stroke="#000000" stroke-width="2.11" stroke-miterlimit="10" cx="96.2" cy="58.9" r="4.3"/>
	<circle fill="#FFFFFF" stroke="#000000" stroke-width="2.11" stroke-miterlimit="10" cx="67" cy="42.9" r="4.3"/>
	<line fill="none" stroke="#000000" stroke-width="2.11" stroke-miterlimit="10" x1="93.4" y1="62.2" x2="78.4" y2="80.7"/>
	<line fill="none" stroke="#000000" stroke-width="2.11" stroke-miterlimit="10" x1="92.2" y1="56.7" x2="70.8" y2="44.9"/>
	<g>
		<path fill="none" stroke="#000000" stroke-width="2.11" stroke-miterlimit="10" d="M57,61.7c-0.2,0.2-0.4,0.4-0.6,0.6"/>
		<path fill="none" stroke="#000000" stroke-width="2.11" stroke-miterlimit="10" stroke-dasharray="1.6058,6.4206" d="M50.9,65.4
			c-5.3,1.7-11.4,0.5-15.6-3.8c-5-5-5.8-12.6-2.5-18.5"/>
		<path fill="none" stroke="#000000" stroke-width="2.11" stroke-miterlimit="10" d="M34.7,40.6c0.2-0.2,0.4-0.4,0.6-0.6"/>
	</g>
</g>
</svg>
