<?xml version="1.0" encoding="utf-8"?>
<!-- Generator: Adobe Illustrator 21.0.2, SVG Export Plug-In . SVG Version: 6.00 Build 0)  -->
<svg version="1.2" baseProfile="tiny" id="Layer_1" xmlns="http://www.w3.org/2000/svg" xmlns:xlink="http://www.w3.org/1999/xlink"
	 x="0px" y="0px" viewBox="0 0 131.9 131.9" overflow="scroll" xml:space="preserve">
<circle fill="#FFD06C" cx="65.9" cy="65.9" r="65.9"/>
<g>
	<path fill="#FFFFFF" stroke="#000000" stroke-width="1.4588" stroke-miterlimit="10" d="M60.2,101.5c0,2.1,1.7,3.9,3.9,3.9h4.4
		c2.1,0,3.9-1.7,3.9-3.9v-0.1h38.7V50H21.4v51.5L60.2,101.5L60.2,101.5z"/>
	<path fill="#FFFFFF" stroke="#000000" stroke-width="1.4588" stroke-miterlimit="10" d="M66.3,103V51.6c0-3.9-3.2-7.1-7.1-7.1H26.8
		c-0.1,0-0.2,0.1-0.2,0.2v51.1c0,0.1,0.1,0.2,0.2,0.2h31.5h0.9c3.9,0,7.1,3.2,7.1,7.1c0-3.9,3.2-7.1,7.1-7.1h1.4h31.2V44.4H73.4
		c-3.9,0-7.1,3.2-7.1,7.1v38.7"/>
	<path fill="#FFFFFF" stroke="#000000" stroke-width="1.4588" stroke-miterlimit="10" d="M81.4,101.9c0,0,0.3-5.1-1.4-6.7
		s-6.3-4.3-6.3-11.2c0-6.9,0-6.1,0-6.1v-0.3c0-1.2,1.1-2.3,2.4-2.3h0c1.3,0,2.4,1,2.4,2.3v0.9V64.1c0-1.4,1.2-2.6,2.8-2.6l0,0
		c1.5,0,2.8,1.1,2.8,2.6v9.6v-2.1c0-1.1,1-2,2.2-2l0,0c1.2,0,2.2,0.9,2.2,2v3v-0.9c0-1.2,1-2.1,2.3-2.1h0c1.3,0,2.3,1,2.3,2.1v1.4
		v-0.8c0-1.2,1.1-2.3,2.4-2.3l0,0c1.3,0,2.4,1,2.4,2.3V88c0,0,0-1.3,0,1.3c0,2.6-1.5,4.1-1.5,7.4c0,3.3,0,5.7,0,5.7"/>
	
		<rect x="78.7" y="100.8" fill="#FFFFFF" stroke="#000000" stroke-width="1.4588" stroke-miterlimit="10" width="20.1" height="6.2"/>
	<line fill="none" stroke="#000000" stroke-width="1.4588" stroke-miterlimit="10" x1="72.5" y1="57.2" x2="101.2" y2="57.2"/>
	<line fill="none" stroke="#000000" stroke-width="1.4588" stroke-miterlimit="10" x1="72.5" y1="51.4" x2="101.2" y2="51.4"/>
	<line fill="none" stroke="#000000" stroke-width="1.4588" stroke-miterlimit="10" x1="31.8" y1="79.5" x2="60.5" y2="79.5"/>
	<line fill="none" stroke="#000000" stroke-width="1.4588" stroke-miterlimit="10" x1="31.8" y1="73.8" x2="60.5" y2="73.8"/>
	<line fill="none" stroke="#000000" stroke-width="1.4588" stroke-miterlimit="10" x1="31.8" y1="90.2" x2="60.5" y2="90.2"/>
	<line fill="none" stroke="#000000" stroke-width="1.4588" stroke-miterlimit="10" x1="31.8" y1="84.5" x2="60.5" y2="84.5"/>
	<line fill="none" stroke="#000000" stroke-width="1.4588" stroke-miterlimit="10" x1="43" y1="60.4" x2="48" y2="60.4"/>
	<path fill="#FFFFFF" stroke="#000000" stroke-width="1.4588" stroke-miterlimit="10" d="M56,35c0-6-5-10.8-11-10.5
		c-5.6,0.3-10.1,5-10,10.6c0,3,1.4,5.8,3.5,7.7c1.2,1.1,1.8,2.5,1.8,4.1v5h10.4v-5c0-1.5,0.6-3,1.8-4C54.7,40.9,56,38.1,56,35z"/>
	<circle fill="#FFFFFF" cx="26.5" cy="29.2" r="2.1"/>
	<circle fill="#FFFFFF" cx="51.6" cy="114.3" r="2.1"/>
	<circle fill="#FFFFFF" cx="97.9" cy="19.7" r="2.1"/>
	<line fill="none" stroke="#000000" stroke-width="1.4588" stroke-miterlimit="10" x1="45.5" y1="51.2" x2="45.5" y2="35.1"/>
	<circle fill="#FFD06C" stroke="#000000" stroke-width="1.4588" stroke-miterlimit="10" cx="43.3" cy="35.3" r="2.2"/>
	<circle fill="#FFD06C" stroke="#000000" stroke-width="1.4588" stroke-miterlimit="10" cx="47.7" cy="35.3" r="2.2"/>
	<path fill="#FFFFFF" stroke="#000000" stroke-width="1.4588" stroke-miterlimit="10" d="M49.1,58.9h-7.2c-1.7,0-3-1.3-3-3v-4.4
		h13.1v4.4C52.1,57.5,50.7,58.9,49.1,58.9z"/>
</g>
</svg>
