<?xml version="1.0" encoding="utf-8"?>
<!-- Generator: Adobe Illustrator 21.0.2, SVG Export Plug-In . SVG Version: 6.00 Build 0)  -->
<svg version="1.2" baseProfile="tiny" id="Layer_1" xmlns="http://www.w3.org/2000/svg" xmlns:xlink="http://www.w3.org/1999/xlink"
	 x="0px" y="0px" viewBox="0 0 130.4 130.4" xml:space="preserve">
<circle fill="#FFD06C" cx="65.2" cy="65.2" r="65.2"/>
<g>
	
		<rect x="22.1" y="31.7" fill="#FFFFFF" stroke="#000000" stroke-width="1.4429" stroke-miterlimit="10" width="86.2" height="44.5"/>
	
		<rect x="44.1" y="68.5" fill="#FFFFFF" stroke="#000000" stroke-width="1.4429" stroke-miterlimit="10" width="42.3" height="6.5"/>
	<polygon fill="#FFFFFF" stroke="#000000" stroke-width="1.4429" stroke-miterlimit="10" points="83.5,74.9 46.9,74.9 50.2,108.7 
		80.3,108.7 	"/>
	<path fill="#FFFFFF" stroke="#000000" stroke-width="1.4429" stroke-miterlimit="10" d="M70.5,86v-2.2c0-2.7-2.4-4.9-5.4-4.9
		s-5.4,2.2-5.4,4.9V86c-0.5,0-0.9,0.4-0.9,0.9c0,0.5,0.4,0.9,0.9,0.9c0.1,0,0.2,0,0.2,0l2.8,4.2l0,0.1c0.5,0.7,1.3,1.2,2.3,1.2
		c1,0,1.8-0.5,2.3-1.2l0,0l2.9-4.2c0.1,0,0.2,0,0.2,0c0.5,0,0.9-0.4,0.9-0.9C71.4,86.4,71,86,70.5,86z"/>
	<path fill="#FFFFFF" stroke="#000000" stroke-width="1.4429" stroke-miterlimit="10" d="M68.1,48.6l3.1-4.5c0.1,0,0.2,0,0.3,0
		c0.5,0,1-0.4,1-1c0-0.5-0.4-1-1-1v-2.5c0-3.1-2.8-5.6-6.2-5.6c-3.4,0-6.2,2.5-6.2,5.6v2.5c-0.5,0-1,0.4-1,1c0,0.5,0.4,1,1,1
		c0.1,0,0.2,0,0.3,0l3.1,4.5"/>
	<path fill="#FFFFFF" stroke="#000000" stroke-width="1.4429" stroke-miterlimit="10" d="M63.1,51.9h-7.9c-2.7,0-4.9,2.2-4.9,4.9
		v11.6h4.9h10.1h10.1h4.9V56.9c0-2.7-2.2-4.9-4.9-4.9h-7.9"/>
	<line fill="#FFFFFF" stroke="#000000" stroke-width="1.4429" stroke-miterlimit="10" x1="55.2" y1="61.1" x2="55.2" y2="68.5"/>
	<line fill="#FFFFFF" stroke="#000000" stroke-width="1.4429" stroke-miterlimit="10" x1="75.3" y1="61.1" x2="75.3" y2="68.5"/>
	<path fill="#FFFFFF" stroke="#000000" stroke-width="1.4429" stroke-miterlimit="10" d="M69.7,61.5c0,0,0.4,2.5,0.4,7"/>
	<path fill="#FFD25C" stroke="#000000" stroke-width="1.4429" stroke-miterlimit="10" d="M69.3,61.6L69.3,61.6
		c0.9-0.1,1.5-1,1.4-1.9l-0.6-4c-0.1-0.9-1-1.5-1.9-1.4h0c-0.9,0.1-1.5,1-1.4,1.9l0.6,4C67.6,61.1,68.4,61.7,69.3,61.6z"/>
	<path fill="#FFFFFF" stroke="#000000" stroke-width="1.4429" stroke-miterlimit="10" d="M77.3,108.7h-24v-8.3
		c0-1.2,0.9-2.1,2.1-2.1h19.8c1.2,0,2.1,0.9,2.1,2.1V108.7z"/>
	<path fill="#FFFFFF" stroke="#000000" stroke-width="1.4429" stroke-miterlimit="10" d="M27.6,98.5c0-0.8,0.3-1.8,3.4-2.8
		c3.1-0.9,5.4-3.3,5.4-3.3l3.7,0c0,0,2.4,2.4,5.5,3.3c3.1,0.9,3.4,2,3.4,2.8"/>
	<path fill="#FFFFFF" stroke="#000000" stroke-width="1.4429" stroke-miterlimit="10" d="M67.1,92.4c0,0,2.4,2.4,5.5,3.3
		c3.1,0.9,3.4,2,3.4,2.8"/>
	<path fill="#FFFFFF" stroke="#000000" stroke-width="1.4429" stroke-miterlimit="10" d="M54.6,98.5c0-0.8,0.3-1.8,3.4-2.8
		c3.1-0.9,5.4-3.3,5.4-3.3"/>
	<path fill="#FFFFFF" stroke="#000000" stroke-width="1.4429" stroke-miterlimit="10" d="M81.4,98.5c0-0.8,0.3-1.8,3.4-2.8
		c3.1-0.9,5.4-3.3,5.4-3.3l3.7,0c0,0,2.4,2.4,5.5,3.3c3.1,0.9,3.4,2,3.4,2.8"/>
	<path fill="#FFFFFF" stroke="#000000" stroke-width="1.4429" stroke-miterlimit="10" d="M43.6,86v-2.2c0-2.7-2.4-4.9-5.4-4.9
		s-5.4,2.2-5.4,4.9V86c-0.5,0-0.9,0.4-0.9,0.9c0,0.5,0.4,0.9,0.9,0.9c0.1,0,0.2,0,0.2,0l2.8,4.2l0,0.1c0.5,0.7,1.3,1.2,2.3,1.2
		c1,0,1.8-0.5,2.3-1.2l0,0l2.9-4.2c0.1,0,0.2,0,0.2,0c0.5,0,0.9-0.4,0.9-0.9C44.5,86.4,44.1,86,43.6,86z"/>
	<line fill="#FFFFFF" stroke="#000000" stroke-width="1.4429" stroke-miterlimit="10" x1="36.3" y1="95.4" x2="40.2" y2="95.4"/>
	<line fill="#FFFFFF" stroke="#000000" stroke-width="1.4429" stroke-miterlimit="10" x1="63.1" y1="95.4" x2="67.1" y2="95.4"/>
	<line fill="#FFFFFF" stroke="#000000" stroke-width="1.4429" stroke-miterlimit="10" x1="90.1" y1="95.4" x2="94.1" y2="95.4"/>
	<circle fill="#FD705F" cx="32" cy="62.1" r="1.9"/>
	<circle fill="#FD705F" cx="45.5" cy="23.9" r="1.9"/>
	<circle fill="#7EDDF9" cx="84.7" cy="41.3" r="1.6"/>
	<g>
		<line fill="#FFFFFF" stroke="#000000" stroke-width="1.4429" stroke-miterlimit="10" x1="88.7" y1="56" x2="94.4" y2="56"/>
		<line fill="#FFFFFF" stroke="#000000" stroke-width="1.4429" stroke-miterlimit="10" x1="93.8" y1="57.9" x2="96.3" y2="57.9"/>
		<line fill="#FFFFFF" stroke="#000000" stroke-width="1.4429" stroke-miterlimit="10" x1="90.8" y1="57.9" x2="92.3" y2="57.9"/>
		<line fill="#FFFFFF" stroke="#000000" stroke-width="1.4429" stroke-miterlimit="10" x1="96.3" y1="56" x2="99.4" y2="56"/>
	</g>
	<g>
		<line fill="#FFFFFF" stroke="#000000" stroke-width="1.4429" stroke-miterlimit="10" x1="96.2" y1="39.6" x2="94.9" y2="38.3"/>
		<line fill="#FFFFFF" stroke="#000000" stroke-width="1.4429" stroke-miterlimit="10" x1="98.5" y1="42" x2="97.3" y2="40.7"/>
		<line fill="#FFFFFF" stroke="#000000" stroke-width="1.4429" stroke-miterlimit="10" x1="96.2" y1="40.7" x2="94.9" y2="42"/>
		<line fill="#FFFFFF" stroke="#000000" stroke-width="1.4429" stroke-miterlimit="10" x1="98.5" y1="38.3" x2="97.3" y2="39.6"/>
	</g>
	<g>
		<line fill="#FFFFFF" stroke="#000000" stroke-width="1.4429" stroke-miterlimit="10" x1="37.9" y1="43.6" x2="36.6" y2="42.3"/>
		<line fill="#FFFFFF" stroke="#000000" stroke-width="1.4429" stroke-miterlimit="10" x1="40.3" y1="46" x2="39" y2="44.7"/>
		<line fill="#FFFFFF" stroke="#000000" stroke-width="1.4429" stroke-miterlimit="10" x1="37.9" y1="44.7" x2="36.6" y2="46"/>
		<line fill="#FFFFFF" stroke="#000000" stroke-width="1.4429" stroke-miterlimit="10" x1="40.3" y1="42.3" x2="39" y2="43.6"/>
	</g>
	<g>
		<line fill="#FFFFFF" stroke="#000000" stroke-width="1.4429" stroke-miterlimit="10" x1="82.9" y1="23.6" x2="81.6" y2="22.3"/>
		<line fill="#FFFFFF" stroke="#000000" stroke-width="1.4429" stroke-miterlimit="10" x1="85.3" y1="26" x2="84" y2="24.7"/>
		<line fill="#FFFFFF" stroke="#000000" stroke-width="1.4429" stroke-miterlimit="10" x1="82.9" y1="24.7" x2="81.6" y2="26"/>
		<line fill="#FFFFFF" stroke="#000000" stroke-width="1.4429" stroke-miterlimit="10" x1="85.3" y1="22.3" x2="84" y2="23.6"/>
	</g>
	<path fill="#FFFFFF" stroke="#000000" stroke-width="1.4429" stroke-miterlimit="10" d="M67.9,48.9L67.9,48.9
		c-0.6,0.9-1.6,1.4-2.6,1.4c-1.1,0-2-0.5-2.6-1.4l0-0.1l-0.2-0.2v2.9l0.6,0.4l2.2,1.3l2.2-1.3l0.6-0.4v-2.9L67.9,48.9z"/>
	<path fill="#FFFFFF" stroke="#000000" stroke-width="1.4429" stroke-miterlimit="10" d="M97.5,86v-2.2c0-2.7-2.4-4.9-5.4-4.9
		s-5.4,2.2-5.4,4.9V86c-0.5,0-0.9,0.4-0.9,0.9c0,0.5,0.4,0.9,0.9,0.9c0.1,0,0.2,0,0.2,0l2.8,4.2l0,0.1c0.5,0.7,1.3,1.2,2.3,1.2
		c1,0,1.8-0.5,2.3-1.2l0,0l2.9-4.2c0.1,0,0.2,0,0.2,0c0.5,0,0.9-0.4,0.9-0.9C98.4,86.4,98,86,97.5,86z"/>
	<path fill="#FFFFFF" stroke="#000000" stroke-width="1.4429" stroke-miterlimit="10" d="M104.1,108.7h-24v-8.3
		c0-1.2,0.9-2.1,2.1-2.1H102c1.2,0,2.1,0.9,2.1,2.1V108.7z"/>
	<path fill="#FFFFFF" stroke="#000000" stroke-width="1.4429" stroke-miterlimit="10" d="M50.5,108.7h-24v-8.3
		c0-1.2,0.9-2.1,2.1-2.1h19.8c1.2,0,2.1,0.9,2.1,2.1V108.7z"/>
</g>
</svg>
