<?xml version="1.0" encoding="utf-8"?>
<!-- Generator: Adobe Illustrator 21.0.2, SVG Export Plug-In . SVG Version: 6.00 Build 0)  -->
<svg version="1.2" baseProfile="tiny" id="Layer_1" xmlns="http://www.w3.org/2000/svg" xmlns:xlink="http://www.w3.org/1999/xlink"
	 x="0px" y="0px" viewBox="0 0 106.8 79.4" xml:space="preserve">
<g>
	<g>
		<g>
			<path fill="#FFD06C" d="M52.8,3c3.3,0,6.7,0.2,10,0.8c5.5,0.9,10.9,2.4,16,4.7c5,2.2,9.7,5,14.1,8.4c3.4,2.7,6.5,5.6,9.3,8.9
				c0.8,0.9,1.5,1.8,1.7,3c0.5,3-2.3,5.8-5.3,5.3C97,33.8,96,33,95.1,31.9c-2.8-3.3-5.9-6.2-9.4-8.7c-4.3-3.2-9-5.7-14-7.5
				c-3.3-1.2-6.8-2.1-10.3-2.7c-4.5-0.7-9-0.9-13.5-0.6c-5.1,0.4-10.1,1.5-14.9,3.3c-5.3,1.9-10.1,4.6-14.6,8
				c-3.2,2.5-6.2,5.3-8.8,8.4c-1.9,2.2-5.1,2.3-7,0.1C1,30.5,1,27.9,2.5,26.1c2.8-3.3,5.9-6.3,9.2-9c4.2-3.3,8.8-6.1,13.7-8.4
				c4.4-2,8.9-3.5,13.6-4.5c3.7-0.8,7.5-1.2,11.3-1.3C51.2,3,52,3,52.8,3z"/>
			<path fill="#FFD06C" d="M52.8,21.7c8.8,0.1,17,2.4,24.5,7.1c4.2,2.6,7.9,5.9,11.1,9.7c1.6,1.9,1.4,4.7-0.5,6.4
				c-1.9,1.7-4.7,1.6-6.5-0.2c-1.4-1.5-2.8-3.1-4.4-4.5c-3.3-3-7.2-5.3-11.4-6.9c-2.8-1.1-5.8-1.8-8.8-2.2c-3.1-0.4-6.2-0.3-9.2,0.1
				c-4.5,0.6-8.8,2-12.8,4.1c-4.2,2.3-7.9,5.3-11,8.9c-1.6,1.9-4.6,2.1-6.5,0.5c-2-1.7-2.2-4.6-0.5-6.6c4.7-5.5,10.3-9.7,17-12.6
				c3.6-1.6,7.4-2.7,11.3-3.3C47.6,21.9,50.1,21.7,52.8,21.7z"/>
			<path fill="#FFD06C" d="M53.7,40.4c7.1,0.2,14,3.2,19.5,9.2c0.8,0.8,1.5,1.7,1.8,2.9c0.5,2.3-1.1,4.9-3.4,5.4
				c-1.9,0.4-3.5-0.1-4.8-1.6c-2.8-3.2-6.2-5.4-10.3-6.2c-5.7-1.2-10.9,0-15.6,3.6c-1,0.8-1.9,1.7-2.8,2.7c-1.4,1.5-3.7,2-5.6,1.1
				c-1.9-1-2.9-3-2.5-5.1c0.2-0.8,0.5-1.5,1.1-2.1c3.4-3.9,7.6-6.7,12.4-8.4C46,40.9,49.6,40.3,53.7,40.4z"/>
			<path fill="#FFD06C" d="M52.4,77.6c-5.1,0-9.3-4.1-9.3-9.2c0-5.2,4.2-9.4,9.3-9.3c5.2,0,9.3,4.2,9.3,9.3
				C61.7,73.5,57.6,77.6,52.4,77.6z"/>
		</g>
		<path fill="none" stroke="#700D00" stroke-width="3" stroke-miterlimit="10" d="M52.7,3.3c3.3,0,6.7,0.2,10,0.7
			c5.5,0.9,10.9,2.4,16,4.6c5.1,2.2,9.8,5,14.1,8.4c3.4,2.6,6.5,5.6,9.3,8.8c0.8,0.9,1.5,1.8,1.7,3c0.5,3-2.2,5.8-5.3,5.3
			c-1.5-0.2-2.5-1.1-3.4-2.2c-2.8-3.3-5.9-6.1-9.4-8.7c-4.3-3.2-9-5.6-14-7.5c-3.4-1.2-6.8-2.1-10.3-2.7c-4.5-0.7-9-0.9-13.5-0.5
			C42.8,13.1,37.9,14.2,33,16c-5.3,2-10.1,4.7-14.5,8.1c-3.2,2.5-6.1,5.3-8.8,8.4c-1.9,2.2-5.1,2.3-7,0.2c-1.6-1.7-1.6-4.3-0.1-6.1
			c2.8-3.3,5.8-6.3,9.2-9c4.2-3.4,8.8-6.2,13.6-8.4c4.4-2,8.9-3.5,13.6-4.5c3.7-0.8,7.5-1.3,11.3-1.4C51.2,3.2,51.9,3.3,52.7,3.3z"
			/>
		<path fill="none" stroke="#700D00" stroke-width="3" stroke-miterlimit="10" d="M52.8,21.9c8.8,0.1,17,2.4,24.5,7
			c4.2,2.6,8,5.9,11.2,9.7c1.6,1.9,1.4,4.7-0.4,6.4c-1.9,1.7-4.7,1.6-6.5-0.2c-1.5-1.5-2.9-3.1-4.4-4.5c-3.4-3-7.2-5.2-11.4-6.8
			c-2.8-1.1-5.8-1.8-8.8-2.1c-3.1-0.4-6.2-0.3-9.2,0.1c-4.5,0.6-8.8,2-12.8,4.2c-4.2,2.3-7.8,5.3-10.9,8.9c-1.6,1.9-4.6,2.1-6.5,0.5
			c-2-1.7-2.2-4.6-0.6-6.5c4.7-5.5,10.3-9.8,16.9-12.7c3.6-1.6,7.4-2.7,11.3-3.4C47.6,22.1,50.2,21.9,52.8,21.9z"/>
		<path fill="none" stroke="#700D00" stroke-width="3" stroke-miterlimit="10" d="M53.8,40.6c7.1,0.1,14,3.1,19.6,9.1
			c0.8,0.8,1.5,1.7,1.8,2.9c0.5,2.3-1,4.9-3.4,5.4c-1.9,0.4-3.5-0.1-4.8-1.6c-2.8-3.2-6.2-5.4-10.4-6.2c-5.7-1.2-10.9,0-15.5,3.7
			c-1,0.8-1.9,1.7-2.8,2.7c-1.4,1.5-3.7,2-5.6,1.1c-1.9-0.9-2.9-3-2.5-5.1c0.2-0.8,0.5-1.5,1.1-2.1c3.4-4,7.5-6.7,12.4-8.4
			C46.2,41.2,49.7,40.6,53.8,40.6z"/>
		<path fill="none" stroke="#700D00" stroke-width="3" stroke-miterlimit="10" d="M52.7,77.9c-5.1,0-9.3-4.1-9.3-9.2
			c0-5.2,4.1-9.4,9.3-9.4c5.2,0,9.3,4.1,9.3,9.3C62,73.7,57.9,77.9,52.7,77.9z"/>
	</g>
</g>
</svg>
