<?xml version="1.0" encoding="utf-8"?>
<!-- Generator: Adobe Illustrator 21.0.2, SVG Export Plug-In . SVG Version: 6.00 Build 0)  -->
<svg version="1.2" baseProfile="tiny" id="Layer_1" xmlns="http://www.w3.org/2000/svg" xmlns:xlink="http://www.w3.org/1999/xlink"
	 x="0px" y="0px" viewBox="0 0 88.9 89.2" xml:space="preserve">
<g>
	<g>
		<path fill="#FFD06C" d="M44.8,80.3c-2.8-1.5-5.3-3.3-8-5c-5.5-3.5-11-7.1-16.5-10.7c-0.4-0.3-0.8-0.5-1.1-0.9c0-6.5,0-12.9,0-19.4
			c0-6.2,0-12.4,0.1-18.6c1-0.6,2-1.2,3-1.9c7.5-4.9,14.9-9.9,22.3-14.8c0,0.5,0.1,1,0.1,1.4c0,9.4,0.1,18.9,0.1,28.3
			c0,8.4,0,16.8,0,25.1C44.9,69.3,44.8,74.8,44.8,80.3z M40,21.6c-0.3,0-0.4,0-0.5,0.1c-4.7,2.7-9.3,5.5-14,8.2
			c-0.5,0.3-0.7,0.7-0.7,1.3c0,2.4,0,4.8,0,7.2c0,1,0.2,1.2,1.1,0.7c4.4-2.7,8.9-5.3,13.3-7.9c0.4-0.2,0.7-0.4,0.7-0.9
			C40,27.3,40,24.5,40,21.6z"/>
		<path fill="#700D00" d="M44.8,80.3c0-5.5,0.1-11,0.1-16.5c0-8.4,0-16.8,0-25.1c0-9.4,0-18.9-0.1-28.3c0-0.5,0-1-0.1-1.4
			c0-2.5,0.1-5.1,0-7.6c0-1.1,0.4-1.4,1.4-1.3c2.8,0.1,5.6,0.1,8.3,0c1.1,0,1.3,0.3,1.3,1.3c0,13,0,26-0.1,38.9
			c0,15.8,0,31.6,0,47.4c0,1.2-0.3,1.5-1.5,1.5c-2.7-0.1-5.5-0.1-8.2,0c-1,0-1.3-0.2-1.3-1.3C44.9,85.4,44.8,82.9,44.8,80.3z"/>
		<path fill="#700D00" d="M19.4,25.7c0,6.2,0,12.4-0.1,18.6c0,6.5,0,12.9,0,19.4c-4.8,0-9.6-0.1-14.5-0.1c0,0,0,0-0.1,0
			c0,0,0.1,0,0.1,0C3.8,63.8,4,63,4,62.5c0-2.4,0-4.9,0-7.3c0-0.6-0.2-1-0.7-1.5c-1.9-1.6-2.7-3.9-3.1-6.3c-0.5-3.8-0.2-7.4,2-10.7
			c0.1-0.2,0.2-0.4,0.3-0.5C4.5,35.5,4,33.9,4,32.5c0-2,0-3.9,0-5.9c0-0.7,0.2-1,1-1C9.8,25.6,14.6,25.6,19.4,25.7z"/>
		<path fill="#700D00" d="M87,55.4c-0.6-0.6-0.9-0.8-1.2-1.1c-2.3-2.3-4.7-4.6-7-7c-0.6-0.6-0.9-0.7-1.6,0c-2.3,2.4-4.7,4.6-7,7
			c-0.8,0.8-1.3,0.8-1.9,0c-0.2-0.3-0.4-0.5-0.7-0.7C67,53,67,52.6,67.7,52c2.4-2.3,4.8-4.7,7.2-7c0.6-0.6,0.7-0.9,0-1.6
			c-2.4-2.3-4.7-4.7-7.1-7c-0.7-0.7-0.9-1.1,0-1.8c0.3-0.2,0.6-0.5,0.8-0.8c0.6-0.8,1-0.6,1.6,0c2.4,2.4,4.8,4.7,7.1,7.1
			c0.6,0.6,0.9,0.7,1.6,0c2.3-2.3,4.6-4.6,6.9-6.9c0.7-0.8,1.2-0.9,2-0.1c1.4,1.5,1.5,1.5,0,3c-2.1,2.1-4.2,4.2-6.3,6.3
			c-0.8,0.7-0.8,1.1,0,1.9c2.4,2.2,4.6,4.6,7,6.8c0.7,0.7,0.8,1.1,0,1.8C87.8,54.1,87.5,54.8,87,55.4z"/>
		<path fill="#53B19B" d="M4.8,63.6C4.8,63.6,4.8,63.6,4.8,63.6C4.8,63.6,4.8,63.6,4.8,63.6L4.8,63.6z"/>
		<path fill="#FDFDFD" d="M40,21.6c0,2.9,0,5.8,0,8.6c0,0.5-0.4,0.7-0.7,0.9c-4.4,2.6-8.9,5.3-13.3,7.9c-0.9,0.5-1.1,0.3-1.1-0.7
			c0-2.4,0-4.8,0-7.2c0-0.6,0.1-1,0.7-1.3c4.7-2.7,9.3-5.5,14-8.2C39.6,21.6,39.7,21.6,40,21.6z"/>
	</g>
</g>
</svg>
