<?xml version="1.0" encoding="utf-8"?>
<!-- Generator: Adobe Illustrator 21.0.2, SVG Export Plug-In . SVG Version: 6.00 Build 0)  -->
<svg version="1.2" baseProfile="tiny" id="Layer_1" xmlns="http://www.w3.org/2000/svg" xmlns:xlink="http://www.w3.org/1999/xlink"
	 x="0px" y="0px" viewBox="0 0 68.3 93.6" xml:space="preserve">
<g>
	<g>
		<polyline fill="#FFD06C" stroke="#700D00" stroke-width="2.7591" stroke-linecap="round" stroke-miterlimit="10" points="
			60.8,13.5 57.4,1.4 53.5,1.4 15.3,1.4 11.4,1.4 8,13.5 15.3,13.5 51.7,13.5 		"/>
		<polygon fill="#F9EBDB" points="6.3,34.5 10,79.4 59.1,79.4 62.8,34.5 		"/>
		<rect x="10.5" y="79.4" fill="#FFD06C" width="47.4" height="12.7"/>
		<rect x="5.5" y="21.7" fill="#FFD06C" width="57.3" height="12.7"/>
		<path fill="#F9EBDB" stroke="#700D00" stroke-width="2.9274" stroke-linecap="round" stroke-miterlimit="10" d="M51.7,13.5H2.5
			c-0.5,0-1,0.4-1,1v5.9c0,0.5,0.4,1,1,1h63.4c0.5,0,1-0.4,1-1v-5.9c0-0.5-0.4-1-1-1h-6.5"/>
		
			<polyline fill="none" stroke="#700D00" stroke-width="2.9274" stroke-linecap="round" stroke-linejoin="round" stroke-miterlimit="10" points="
			8.4,60.9 11,92.1 11.1,92.1 57.8,92.1 57.9,92.1 63.8,21.7 57.8,21.7 11.1,21.7 5.1,21.7 7.7,52.5 		"/>
		<line fill="none" stroke="#700D00" stroke-width="2.9274" stroke-miterlimit="10" x1="6.2" y1="34.5" x2="62.5" y2="34.5"/>
		<line fill="none" stroke="#700D00" stroke-width="2.9274" stroke-miterlimit="10" x1="9.7" y1="79.4" x2="59" y2="79.4"/>
		<g>
			<path fill="#B75549" d="M27.3,63.2c5.6,5.6,13.1,7,16.9,3.2L24.1,46.3C20.3,50.1,21.7,57.7,27.3,63.2z"/>
			<path fill="#8E4238" d="M41,49.4c-5.6-5.6-13.1-7-16.9-3.2l20.1,20.1C48,62.6,46.6,55,41,49.4z"/>
			
				<ellipse transform="matrix(0.7071 -0.7071 0.7071 0.7071 -29.8211 40.6375)" fill="none" stroke="#700D00" stroke-width="3.0563" stroke-miterlimit="10" cx="34.1" cy="56.3" rx="9.7" ry="14.2"/>
			
				<line fill="none" stroke="#700D00" stroke-width="3.0562" stroke-linecap="round" stroke-miterlimit="10" x1="29.8" y1="51.7" x2="24.3" y2="46.1"/>
			
				<line fill="none" stroke="#700D00" stroke-width="3.0562" stroke-linecap="round" stroke-miterlimit="10" x1="44.3" y1="66.1" x2="32.9" y2="54.7"/>
		</g>
	</g>
</g>
</svg>
