<?xml version="1.0" encoding="utf-8"?>
<!-- Generator: Adobe Illustrator 21.0.2, SVG Export Plug-In . SVG Version: 6.00 Build 0)  -->
<svg version="1.2" baseProfile="tiny" id="Layer_1" xmlns="http://www.w3.org/2000/svg" xmlns:xlink="http://www.w3.org/1999/xlink"
	 x="0px" y="0px" viewBox="0 0 94.7 94.7" overflow="scroll" xml:space="preserve">
<circle fill="#EDBD66" cx="47.4" cy="47.4" r="47.4"/>
<g>
	<path fill="#F6EB16" d="M33.9,38.6c-2.5,2.5-6.6,2.5-9.1,0s-2.5-6.6,0-9.1"/>
	<line fill="none" stroke="#010101" stroke-width="1.5" stroke-miterlimit="10" x1="46.3" y1="11" x2="52.5" y2="17.2"/>
	
		<rect x="38.6" y="15.4" transform="matrix(0.7071 0.7071 -0.7071 0.7071 26.6664 -25.4179)" fill="#FFFFFF" stroke="#010101" stroke-width="1.5" stroke-miterlimit="10" width="10.8" height="8.1"/>
	<polygon fill="#FFFFFF" stroke="#010101" stroke-width="1.5" stroke-miterlimit="10" points="39.3,43.8 19.2,24.2 37.3,18.5 
		45,26.2 	"/>
	<polygon fill="#FFFFFF" stroke="#010101" stroke-width="1.5" stroke-miterlimit="10" points="61.2,74.6 51.9,74.6 40.9,77.1 
		40.9,80.5 72.2,80.5 72.2,77.1 	"/>
	<rect x="51.9" y="70.5" fill="#FFFFFF" stroke="#010101" stroke-width="1.5" stroke-miterlimit="10" width="9.2" height="4.1"/>
	<circle fill="#FFFFFF" stroke="#010101" stroke-width="1.5" stroke-miterlimit="10" cx="56.5" cy="64.7" r="4"/>
	<circle fill="#FFFFFF" stroke="#010101" stroke-width="1.5" stroke-miterlimit="10" cx="75.5" cy="41.5" r="4"/>
	<circle fill="#FFFFFF" stroke="#010101" stroke-width="1.5" stroke-miterlimit="10" cx="48.6" cy="26.8" r="4"/>
	<line fill="none" stroke="#010101" stroke-width="1.5" stroke-miterlimit="10" x1="73" y1="44.6" x2="59.1" y2="61.6"/>
	<line fill="none" stroke="#010101" stroke-width="1.5" stroke-miterlimit="10" x1="71.9" y1="39.5" x2="52.1" y2="28.6"/>
	<g>
		<path fill="none" stroke="#010101" stroke-width="1.5" stroke-miterlimit="10" d="M39.3,44.1c-0.2,0.2-0.4,0.4-0.6,0.5"/>
		<path fill="none" stroke="#010101" stroke-width="1.5" stroke-miterlimit="10" stroke-dasharray="1.4826,5.928" d="M33.7,47.6
			c-4.9,1.6-10.5,0.4-14.4-3.5C14.7,39.5,13.9,32.4,17,27"/>
		<path fill="none" stroke="#010101" stroke-width="1.5" stroke-miterlimit="10" d="M18.8,24.6c0.2-0.2,0.3-0.4,0.5-0.6"/>
	</g>
</g>
</svg>
