<?xml version="1.0" encoding="utf-8"?>
<!-- Generator: Adobe Illustrator 21.0.2, SVG Export Plug-In . SVG Version: 6.00 Build 0)  -->
<svg version="1.2" baseProfile="tiny" id="Layer_1" xmlns="http://www.w3.org/2000/svg" xmlns:xlink="http://www.w3.org/1999/xlink"
	 x="0px" y="0px" viewBox="0 0 147.8 94.7" overflow="scroll" xml:space="preserve">
<circle fill="#EDBD66" cx="74.9" cy="47.4" r="47.4"/>
<g>
	<g>
		<path fill="#F6EB16" d="M17.3,37.4c-2.2,2.2-5.7,2.2-7.9,0c-2.2-2.2-2.2-5.7,0-7.9"/>
		<line fill="none" stroke="#010101" stroke-width="1.6771" stroke-miterlimit="10" x1="27.9" y1="13.6" x2="33.3" y2="19"/>
		
			<rect x="21.3" y="17.5" transform="matrix(0.7071 0.7071 -0.7071 0.7071 22.4142 -12.2478)" fill="#FFFFFF" stroke="#010101" stroke-width="1.6771" stroke-miterlimit="10" width="9.3" height="6.9"/>
		<polygon fill="#FFFFFF" stroke="#010101" stroke-width="1.6771" stroke-miterlimit="10" points="21.9,41.9 4.6,25 20.2,20.1 
			26.8,26.7 		"/>
		<polygon fill="#FFFFFF" stroke="#010101" stroke-width="1.6771" stroke-miterlimit="10" points="40.8,68.4 32.8,68.4 23.3,70.6 
			23.3,73.5 50.3,73.5 50.3,70.6 		"/>
		
			<rect x="32.8" y="64.9" fill="#FFFFFF" stroke="#010101" stroke-width="1.6771" stroke-miterlimit="10" width="7.9" height="3.5"/>
		<circle fill="#FFFFFF" stroke="#010101" stroke-width="1.6771" stroke-miterlimit="10" cx="36.8" cy="59.9" r="3.4"/>
		<circle fill="#FFFFFF" stroke="#010101" stroke-width="1.6771" stroke-miterlimit="10" cx="53.1" cy="39.9" r="3.4"/>
		<circle fill="#FFFFFF" stroke="#010101" stroke-width="1.6771" stroke-miterlimit="10" cx="29.9" cy="27.2" r="3.4"/>
		<line fill="none" stroke="#010101" stroke-width="1.6771" stroke-miterlimit="10" x1="50.9" y1="42.6" x2="38.9" y2="57.2"/>
		<line fill="none" stroke="#010101" stroke-width="1.6771" stroke-miterlimit="10" x1="50" y1="38.2" x2="32.9" y2="28.8"/>
		<g>
			<path fill="none" stroke="#010101" stroke-width="1.6771" stroke-miterlimit="10" d="M22,42.1c-0.2,0.2-0.3,0.3-0.5,0.5"/>
			<path fill="none" stroke="#010101" stroke-width="1.6771" stroke-miterlimit="10" stroke-dasharray="1.2763,5.1034" d="
				M17.1,45.1c-4.2,1.4-9,0.4-12.4-3c-4-4-4.6-10.1-2-14.7"/>
			<path fill="none" stroke="#010101" stroke-width="1.6771" stroke-miterlimit="10" d="M4.2,25.4c0.1-0.2,0.3-0.3,0.5-0.5"/>
		</g>
	</g>
	<g>
		<path fill="#FFFFFF" stroke="#010101" stroke-width="1.5283" stroke-miterlimit="10" d="M142.3,67.6h-41.2c-2,0-3.6-1.6-3.6-3.6
			l0,0c0-2,1.6-3.6,3.6-3.6h41.2c2,0,3.6,1.6,3.6,3.6l0,0C145.9,66,144.3,67.6,142.3,67.6z"/>
		<polygon fill="#F6EB16" stroke="#010101" stroke-width="1.5283" stroke-miterlimit="10" points="136.2,61.8 130.1,56.4 97.5,56.4 
			97.5,52 145.9,52 		"/>
		<path fill="none" stroke="#010101" stroke-width="1.5283" stroke-miterlimit="10" d="M146.3,47.8c-0.5,0.4-1,0.8-2.2,0.8
			c-2.2,0-1.8-1.5-4.2-1.5c-2.2,0-1.8,1.5-4.2,1.5c-2.2,0-1.8-1.5-4.2-1.5c-2.2,0-1.8,1.5-4.2,1.5c-2.2,0-1.8-1.5-4.2-1.5
			c-2.2,0-1.8,1.5-4.2,1.5c-2.2,0-1.8-1.5-4.2-1.5c-2.2,0-1.8,1.5-4.2,1.5c-2.2,0-1.8-1.5-4.2-1.5c-2.2,0-1.8,1.5-4.2,1.5
			c-2.2,0-1.8-1.5-4.2-1.5"/>
		<path fill="#FFFFFF" stroke="#010101" stroke-width="1.5283" stroke-miterlimit="10" d="M122.1,23.8c-12.6,0-23,8.2-24.7,18.8
			h49.4C145.1,32,134.7,23.8,122.1,23.8z"/>
		<path fill="#FFFFFF" stroke="#010101" stroke-width="1.5283" stroke-miterlimit="10" d="M117.3,28.7c-5.4,1.7-9.9,5-12.9,9.2"/>
		<circle fill="#FFFFFF" stroke="#010101" stroke-width="1.5283" stroke-miterlimit="10" cx="123.3" cy="29.5" r="1"/>
		<circle fill="#FFFFFF" stroke="#010101" stroke-width="1.5283" stroke-miterlimit="10" cx="127.5" cy="34.2" r="1"/>
		<circle fill="#FFFFFF" stroke="#010101" stroke-width="1.5283" stroke-miterlimit="10" cx="134.7" cy="36.9" r="1"/>
		<circle fill="#FFFFFF" stroke="#010101" stroke-width="1.5283" stroke-miterlimit="10" cx="116.3" cy="35.2" r="1"/>
		<circle fill="#FFFFFF" stroke="#010101" stroke-width="1.5283" stroke-miterlimit="10" cx="122.1" cy="37.9" r="1"/>
	</g>
	<line fill="none" stroke="#010101" stroke-width="2.214" stroke-miterlimit="10" x1="68.4" y1="47" x2="81.6" y2="47"/>
	<line fill="none" stroke="#010101" stroke-width="2.214" stroke-miterlimit="10" x1="75" y1="53.7" x2="75" y2="40.4"/>
</g>
</svg>
